<svg version="1" xmlns="http://www.w3.org/2000/svg" width="933.333" height="933.333" viewBox="0 0 700.000000 700.000000"><path d="M619.5 41.6C593.7 54.7 494.4 104.8 414 145.2c-160.9 81-217.5 109.5-292 147.1-42.6 21.4-77.7 39.4-78 39.8-.3.4-2.8 7.2-5.4 15.1l-4.9 14.3 3.4 7.5c7.9 17.7 23.5 47.9 29.9 58 .5.8 2.3 3.9 4 6.9 12.2 20.9 40.8 60.6 54.7 75.8 1.6 1.7 5.5 6.3 8.8 10.2 6.9 8.1 37.9 39 47.5 47.3 3.6 3.1 7.9 6.8 9.5 8.3 1.7 1.4 4.6 3.8 6.5 5.3 1.9 1.5 3.7 2.9 4 3.2.3.4 2.3 1.9 4.5 3.5 2.2 1.7 4.2 3.2 4.5 3.6.3.3 4.6 3.5 9.5 7.2 5 3.7 9.5 7 10 7.5 4.6 3.8 44.7 29.2 46.1 29.2.3 0 3 1.6 6 3.5 5 3.2 38 19.8 50.5 25.4l5.4 2.4 14.3-4.9c7.9-2.7 14.9-5.6 15.7-6.4.7-.8 22.9-44.5 49.3-97 26.5-52.5 57.3-113.7 68.6-136 11.3-22.3 20.9-41.2 21.2-42 .4-.8 2.3-4.9 4.4-9 16-31.9 86.7-172.2 107.5-213.5 14.2-28.1 26.4-52.4 27.2-54 .8-1.7 2.5-5 3.6-7.5 1.2-2.5 3-5.7 4-7.3 1-1.5 1.6-2.7 1.3-2.7-.3 0 .7-2.1 2.2-4.8 1.5-2.6 4-7.5 5.6-11l3-6.2-12-12.3c-6.5-6.7-13.5-13.6-15.4-15.2l-3.5-3-16 8.1z"/></svg>